<svg width="16" height="16" viewBox="0 0 16 16" fill="none" xmlns="http://www.w3.org/2000/svg">
<path fill-rule="evenodd" clip-rule="evenodd" d="M11 3C11 2.72386 11.2239 2.5 11.5 2.5H14C14.2761 2.5 14.5 2.72386 14.5 3V5.5C14.5 5.77614 14.2761 6 14 6C13.7239 6 13.5 5.77614 13.5 5.5V3.5H11.5C11.2239 3.5 11 3.27614 11 3Z" fill="#3F3F3F"/>
<path fill-rule="evenodd" clip-rule="evenodd" d="M2 10C2.27614 10 2.5 10.2239 2.5 10.5V12.5H4.5C4.77614 12.5 5 12.7239 5 13C5 13.2761 4.77614 13.5 4.5 13.5H2C1.72386 13.5 1.5 13.2761 1.5 13V10.5C1.5 10.2239 1.72386 10 2 10Z" fill="#3F3F3F"/>
<path fill-rule="evenodd" clip-rule="evenodd" d="M14 10C14.2761 10 14.5 10.2239 14.5 10.5V13C14.5 13.2761 14.2761 13.5 14 13.5H11.5C11.2239 13.5 11 13.2761 11 13C11 12.7239 11.2239 12.5 11.5 12.5H13.5V10.5C13.5 10.2239 13.7239 10 14 10Z" fill="#3F3F3F"/>
<path fill-rule="evenodd" clip-rule="evenodd" d="M1.5 3C1.5 2.72386 1.72386 2.5 2 2.5H4.5C4.77614 2.5 5 2.72386 5 3C5 3.27614 4.77614 3.5 4.5 3.5H2.5V5.5C2.5 5.77614 2.27614 6 2 6C1.72386 6 1.5 5.77614 1.5 5.5V3Z" fill="#3F3F3F"/>
<path fill-rule="evenodd" clip-rule="evenodd" d="M5 5C5.27614 5 5.5 5.22386 5.5 5.5V10.5C5.5 10.7761 5.27614 11 5 11C4.72386 11 4.5 10.7761 4.5 10.5V5.5C4.5 5.22386 4.72386 5 5 5Z" fill="#3F3F3F"/>
<path fill-rule="evenodd" clip-rule="evenodd" d="M11 5C11.2761 5 11.5 5.22386 11.5 5.5V10.5C11.5 10.7761 11.2761 11 11 11C10.7239 11 10.5 10.7761 10.5 10.5V5.5C10.5 5.22386 10.7239 5 11 5Z" fill="#3F3F3F"/>
<path fill-rule="evenodd" clip-rule="evenodd" d="M9 5C9.27614 5 9.5 5.22386 9.5 5.5V10.5C9.5 10.7761 9.27614 11 9 11C8.72386 11 8.5 10.7761 8.5 10.5V5.5C8.5 5.22386 8.72386 5 9 5Z" fill="#3F3F3F"/>
<path fill-rule="evenodd" clip-rule="evenodd" d="M7 5C7.27614 5 7.5 5.22386 7.5 5.5V10.5C7.5 10.7761 7.27614 11 7 11C6.72386 11 6.5 10.7761 6.5 10.5V5.5C6.5 5.22386 6.72386 5 7 5Z" fill="#3F3F3F"/>
</svg>
