<svg width="16" height="16" viewBox="0 0 16 16" fill="none" xmlns="http://www.w3.org/2000/svg">
<path fill-rule="evenodd" clip-rule="evenodd" d="M8 2.5C4.96243 2.5 2.5 4.96243 2.5 8C2.5 11.0376 4.96243 13.5 8 13.5C11.0376 13.5 13.5 11.0376 13.5 8C13.5 4.96243 11.0376 2.5 8 2.5ZM1.5 8C1.5 4.41015 4.41015 1.5 8 1.5C11.5899 1.5 14.5 4.41015 14.5 8C14.5 11.5899 11.5899 14.5 8 14.5C4.41015 14.5 1.5 11.5899 1.5 8Z" fill="#3F3F3F"/>
<path fill-rule="evenodd" clip-rule="evenodd" d="M8 1.5C8.27614 1.5 8.5 1.72386 8.5 2V8C8.5 8.27614 8.27614 8.5 8 8.5C7.72386 8.5 7.5 8.27614 7.5 8V2C7.5 1.72386 7.72386 1.5 8 1.5Z" fill="#3F3F3F"/>
<path fill-rule="evenodd" clip-rule="evenodd" d="M13.6272 4.75C13.7653 4.98912 13.6834 5.29493 13.4443 5.43305L3.05681 11.433C2.81769 11.5712 2.51188 11.4893 2.37376 11.2502C2.23564 11.0111 2.31752 10.7052 2.55664 10.5671L12.9441 4.56712C13.1833 4.429 13.4891 4.51088 13.6272 4.75Z" fill="#3F3F3F"/>
</svg>
