<svg width="16" height="16" viewBox="0 0 16 16" fill="none" xmlns="http://www.w3.org/2000/svg">
<path fill-rule="evenodd" clip-rule="evenodd" d="M1.79291 3.29289C1.98045 3.10536 2.2348 3 2.50002 3H13.5C13.7652 3 14.0196 3.10536 14.2071 3.29289C14.3947 3.48043 14.5 3.73478 14.5 4V12C14.5 12.2652 14.3947 12.5196 14.2071 12.7071C14.0196 12.8946 13.7652 13 13.5 13H5.15639C5.15939 13 5.16229 12.9989 5.16456 12.997L5.15639 12.9875L4.83752 12.6187L5.15819 13.0024L3.13944 14.6899L3.13753 14.6915C2.99185 14.812 2.81496 14.8888 2.6274 14.9129C2.43984 14.937 2.2493 14.9074 2.07787 14.8276C1.90645 14.7478 1.76117 14.621 1.65889 14.4619C1.55661 14.3028 1.50153 14.1181 1.50003 13.929L1.5 13.925L1.50002 4C1.50002 3.73478 1.60537 3.48043 1.79291 3.29289ZM4.51416 12.2374C4.69297 12.0843 4.92064 12.0001 5.15614 12H13.5V4L2.50002 4V13.921L4.51416 12.2374Z" fill="#3F3F3F"/>
</svg>
