<svg width="16" height="16" viewBox="0 0 16 16" fill="none" xmlns="http://www.w3.org/2000/svg">
<path fill-rule="evenodd" clip-rule="evenodd" d="M11.25 3.5C10.9185 3.5 10.6005 3.6317 10.3661 3.86612C10.1317 4.10054 10 4.41848 10 4.75V6H11.25C11.5815 6 11.8995 5.8683 12.1339 5.63388C12.3683 5.39946 12.5 5.08152 12.5 4.75C12.5 4.41848 12.3683 4.10054 12.1339 3.86612C11.8995 3.6317 11.5815 3.5 11.25 3.5ZM11.25 2.5C11.8467 2.5 12.419 2.73705 12.841 3.15901C13.2629 3.58097 13.5 4.15326 13.5 4.75C13.5 5.34674 13.2629 5.91903 12.841 6.34099C12.419 6.76295 11.8467 7 11.25 7H9.5C9.22386 7 9 6.77614 9 6.5V4.75C9 4.15326 9.23705 3.58097 9.65901 3.15901C10.081 2.73705 10.6533 2.5 11.25 2.5Z" fill="#3F3F3F"/>
<path fill-rule="evenodd" clip-rule="evenodd" d="M7 6.5C7 6.77614 6.77614 7 6.5 7H4.75C4.15326 7 3.58097 6.76295 3.15901 6.34099C2.73705 5.91903 2.5 5.34674 2.5 4.75C2.5 4.15326 2.73705 3.58097 3.15901 3.15901C3.58097 2.73705 4.15326 2.5 4.75 2.5C5.34674 2.5 5.91903 2.73705 6.34099 3.15901C6.76295 3.58097 7 4.15326 7 4.75V6.5ZM6 6V4.75C6 4.41848 5.8683 4.10054 5.63388 3.86612C5.39946 3.6317 5.08152 3.5 4.75 3.5C4.41848 3.5 4.10054 3.6317 3.86612 3.86612C3.6317 4.10054 3.5 4.41848 3.5 4.75C3.5 5.08152 3.6317 5.39946 3.86612 5.63388C4.10054 5.8683 4.41848 6 4.75 6H6Z" fill="#3F3F3F"/>
<path fill-rule="evenodd" clip-rule="evenodd" d="M9 9.5C9 9.22386 9.22386 9 9.5 9H11.25C11.8467 9 12.419 9.23705 12.841 9.65901C13.2629 10.081 13.5 10.6533 13.5 11.25C13.5 11.8467 13.2629 12.419 12.841 12.841C12.419 13.2629 11.8467 13.5 11.25 13.5C10.6533 13.5 10.081 13.2629 9.65901 12.841C9.23705 12.419 9 11.8467 9 11.25V9.5ZM10 10V11.25C10 11.5815 10.1317 11.8995 10.3661 12.1339C10.6005 12.3683 10.9185 12.5 11.25 12.5C11.5815 12.5 11.8995 12.3683 12.1339 12.1339C12.3683 11.8995 12.5 11.5815 12.5 11.25C12.5 10.9185 12.3683 10.6005 12.1339 10.3661C11.8995 10.1317 11.5815 10 11.25 10H10Z" fill="#3F3F3F"/>
<path fill-rule="evenodd" clip-rule="evenodd" d="M4.75 12.5C5.08152 12.5 5.39946 12.3683 5.63388 12.1339C5.8683 11.8995 6 11.5815 6 11.25V10H4.75C4.41848 10 4.10054 10.1317 3.86612 10.3661C3.6317 10.6005 3.5 10.9185 3.5 11.25C3.5 11.5815 3.6317 11.8995 3.86612 12.1339C4.10054 12.3683 4.41848 12.5 4.75 12.5ZM4.75 13.5C4.15326 13.5 3.58097 13.2629 3.15901 12.841C2.73705 12.419 2.5 11.8467 2.5 11.25C2.5 10.6533 2.73705 10.081 3.15901 9.65901C3.58097 9.23705 4.15326 9 4.75 9H6.5C6.77614 9 7 9.22386 7 9.5L7 11.25C7 11.8467 6.76295 12.419 6.34099 12.841C5.91903 13.2629 5.34674 13.5 4.75 13.5Z" fill="#3F3F3F"/>
<path fill-rule="evenodd" clip-rule="evenodd" d="M6 6.5C6 6.22386 6.22386 6 6.5 6H9.5C9.77614 6 10 6.22386 10 6.5V9.5C10 9.77614 9.77614 10 9.5 10H6.5C6.22386 10 6 9.77614 6 9.5V6.5ZM7 7V9H9V7H7Z" fill="#3F3F3F"/>
</svg>
