<svg width="16" height="16" viewBox="0 0 16 16" fill="none" xmlns="http://www.w3.org/2000/svg">
<path fill-rule="evenodd" clip-rule="evenodd" d="M7.5091 0.952928C7.65852 0.86732 7.82775 0.822266 8 0.822266C8.17225 0.822266 8.34148 0.86732 8.4909 0.952928L13.9907 4.04654C14.1445 4.13392 14.2726 4.26031 14.362 4.41299C14.4515 4.56566 14.499 4.73921 14.5 4.91614L14.5 4.91883L14.5 11.0813H14L14.5 11.084C14.499 11.2609 14.4515 11.4345 14.362 11.5872C14.2726 11.7398 14.1445 11.8662 13.9907 11.9536L13.9889 11.9546L8.49089 15.0472C8.34147 15.1328 8.17224 15.1779 8 15.1779C7.82776 15.1779 7.65853 15.1328 7.50911 15.0472L2.01112 11.9546L2.00934 11.9536C1.85549 11.8662 1.72739 11.7398 1.63797 11.5872C1.54854 11.4345 1.50096 11.2609 1.50001 11.084L1.5 11.0813V4.91614C1.50095 4.73921 1.54854 4.56566 1.63797 4.41299C1.72739 4.26031 1.85549 4.13392 2.00934 4.04654L2.01112 4.04554L7.5091 0.952928ZM13.5 11.0789V4.92124C13.5 4.92024 13.4997 4.91926 13.4992 4.91839C13.4986 4.9175 13.4979 4.91675 13.497 4.91621C13.497 4.91618 13.4971 4.91625 13.497 4.91621L8 1.82414L2.50316 4.91611C2.5031 4.91614 2.50321 4.91608 2.50316 4.91611C2.50228 4.91665 2.50137 4.9175 2.50085 4.91839C2.50034 4.91926 2.50005 4.92024 2.5 4.92124V11.0789C2.50005 11.0799 2.50034 11.0809 2.50085 11.0818C2.50137 11.0827 2.5021 11.0834 2.50297 11.0839C2.50291 11.0839 2.50303 11.084 2.50297 11.0839L8 14.176L13.4968 11.084C13.4968 11.0841 13.4969 11.084 13.4968 11.084C13.4977 11.0835 13.4986 11.0827 13.4992 11.0818C13.4997 11.0809 13.5 11.0799 13.5 11.0789Z" fill="#3F3F3F"/>
<path fill-rule="evenodd" clip-rule="evenodd" d="M1.63172 4.41876C1.76616 4.17756 2.07069 4.09102 2.31189 4.22547L8.05362 7.42597L13.684 4.22745C13.9241 4.09105 14.2293 4.17512 14.3657 4.41523C14.5021 4.65533 14.418 4.96055 14.1779 5.09695L8.30292 8.43445C8.15102 8.52074 7.9651 8.52149 7.81251 8.43643L1.82501 5.09893C1.58381 4.96449 1.49727 4.65996 1.63172 4.41876Z" fill="#3F3F3F"/>
<path fill-rule="evenodd" clip-rule="evenodd" d="M8.06046 7.50002C8.3366 7.50235 8.55856 7.72808 8.55623 8.00421L8.49998 14.6792C8.49766 14.9553 8.27192 15.1773 7.99579 15.175C7.71965 15.1727 7.49769 14.9469 7.50002 14.6708L7.55627 7.99579C7.55859 7.71965 7.78433 7.49769 8.06046 7.50002Z" fill="#3F3F3F"/>
</svg>
