<svg width="16" height="16" viewBox="0 0 16 16" fill="none" xmlns="http://www.w3.org/2000/svg">
<path fill-rule="evenodd" clip-rule="evenodd" d="M8 5.5C6.61929 5.5 5.5 6.61929 5.5 8C5.5 9.38071 6.61929 10.5 8 10.5C9.38071 10.5 10.5 9.38071 10.5 8C10.5 6.61929 9.38071 5.5 8 5.5ZM4.5 8C4.5 6.067 6.067 4.5 8 4.5C9.933 4.5 11.5 6.067 11.5 8C11.5 9.933 9.933 11.5 8 11.5C6.067 11.5 4.5 9.933 4.5 8Z" fill="#3F3F3F"/>
<path fill-rule="evenodd" clip-rule="evenodd" d="M5.85819 1.33082C5.99551 1.28649 6.14529 1.30365 6.26903 1.3779L7.73059 2.25483C7.90974 2.24682 8.08916 2.24683 8.26831 2.25484L9.72378 1.38385C9.8465 1.31041 9.99479 1.29304 10.1312 1.33612C11.0863 1.63788 11.9645 2.14363 12.7048 2.81833C12.811 2.91505 12.8704 3.05274 12.868 3.19631L12.8394 4.8952C12.9381 5.04677 13.0286 5.20347 13.1107 5.36466L14.5923 6.18839C14.717 6.25775 14.8062 6.37713 14.8373 6.51644C15.0553 7.49274 15.0575 8.50485 14.844 9.48213C14.8133 9.62263 14.7236 9.74311 14.5978 9.81279L13.1105 10.6365C13.0285 10.7976 12.938 10.9541 12.8394 11.1056L12.868 12.8045C12.8704 12.9481 12.8109 13.0857 12.7048 13.1825C11.966 13.8557 11.0916 14.3629 10.1404 14.67C10.0031 14.7143 9.85328 14.6971 9.72954 14.6229L8.26798 13.746C8.08883 13.754 7.90942 13.754 7.73027 13.7459L6.27479 14.6169C6.15207 14.6904 6.00378 14.7077 5.86741 14.6647C4.91226 14.3629 4.03411 13.8572 3.29375 13.1825C3.18761 13.0857 3.12818 12.948 3.13061 12.8044L3.15924 11.1094C3.06112 10.9563 2.97066 10.7984 2.88817 10.6363L1.40632 9.81239C1.28157 9.74303 1.1924 9.62365 1.1613 9.48434C0.943322 8.50805 0.941022 7.49594 1.15456 6.51866C1.18526 6.37816 1.27498 6.25768 1.40079 6.188L2.88811 5.36425C2.9701 5.20321 3.06059 5.04664 3.15921 4.8952L3.13061 3.19631C3.12819 3.05273 3.18762 2.91504 3.29376 2.81832C4.03257 2.14508 4.90698 1.63788 5.85819 1.33082ZM4.13436 3.41081L4.16172 5.03573C4.16349 5.141 4.13198 5.24414 4.07169 5.33045C3.93758 5.52246 3.82017 5.7256 3.72074 5.93766C3.67604 6.03299 3.60239 6.11177 3.51029 6.16279L2.08812 6.95045C1.96373 7.64495 1.96545 8.35623 2.09322 9.05013L3.511 9.83839C3.60241 9.88922 3.67558 9.96742 3.72022 10.062C3.82182 10.2773 3.94034 10.4843 4.07464 10.6808C4.13304 10.7663 4.16346 10.8678 4.16171 10.9713L4.13437 12.5899C4.67481 13.0465 5.29283 13.4023 5.95899 13.6405L7.34878 12.8088C7.4368 12.7562 7.53889 12.7318 7.64121 12.7392C7.87962 12.7562 8.11895 12.7562 8.35736 12.7392C8.45987 12.7318 8.56216 12.7563 8.65028 12.8091L10.0446 13.6457C10.7085 13.4037 11.3246 13.0463 11.8642 12.59L11.8369 10.9651C11.8351 10.8598 11.8666 10.7566 11.9269 10.6703C12.061 10.4783 12.1784 10.2752 12.2778 10.0631C12.3225 9.9678 12.3962 9.88901 12.4883 9.838L13.9104 9.05034C14.0348 8.35583 14.0331 7.64456 13.9053 6.95065L12.4876 6.16239C12.3958 6.11136 12.3224 6.03273 12.2778 5.93766C12.1784 5.7256 12.061 5.52246 11.9269 5.33045C11.8666 5.24414 11.8351 5.141 11.8369 5.03573L11.8642 3.41088C11.3238 2.95433 10.7057 2.59847 10.0396 2.36025L8.64979 3.19194C8.56177 3.24461 8.45968 3.26894 8.35736 3.26162C8.11895 3.24456 7.87962 3.24456 7.64121 3.26162C7.5387 3.26895 7.43642 3.24452 7.34829 3.19164L5.95401 2.35507C5.29003 2.59707 4.67399 2.95448 4.13436 3.41081Z" fill="#3F3F3F"/>
</svg>
