<svg width="40" height="40" viewBox="0 0 40 40" fill="none" xmlns="http://www.w3.org/2000/svg">
<path d="M21.73 29.0017C21.5542 29.3048 21.3018 29.5564 20.9982 29.7312C20.6946 29.9061 20.3504 29.9982 20 29.9982C19.6496 29.9982 19.3054 29.9061 19.0018 29.7312C18.6982 29.5564 18.4458 29.3048 18.27 29.0017M30 25.0017H10C10.7956 25.0017 11.5587 24.6856 12.1213 24.123C12.6839 23.5604 13 22.7974 13 22.0017V17.0017C13 15.1452 13.7375 13.3647 15.0503 12.052C16.363 10.7392 18.1435 10.0017 20 10.0017C21.8565 10.0017 23.637 10.7392 24.9497 12.052C26.2625 13.3647 27 15.1452 27 17.0017V22.0017C27 22.7974 27.3161 23.5604 27.8787 24.123C28.4413 24.6856 29.2044 25.0017 30 25.0017Z" stroke="#3F3F3F" stroke-width="2" stroke-linecap="round" stroke-linejoin="round"/>
<circle cx="26" cy="11" r="4" fill="#A92525"/>
</svg>
