<svg width="16" height="16" viewBox="0 0 16 16" fill="none" xmlns="http://www.w3.org/2000/svg">
<path d="M3.33333 14.6667H12.6667C13.0203 14.6667 13.3594 14.5262 13.6095 14.2761C13.8595 14.0261 14 13.687 14 13.3333V7.33333C14.0005 7.24559 13.9837 7.15862 13.9505 7.07739C13.9173 6.99617 13.8685 6.92229 13.8067 6.86L8.47333 1.52666C8.34843 1.4025 8.17946 1.3328 8.00333 1.3328C7.82721 1.3328 7.65824 1.4025 7.53333 1.52666L2.2 6.86C2.13701 6.92174 2.08689 6.99537 2.05256 7.07662C2.01823 7.15787 2.00037 7.24513 2 7.33333V13.3333C2 13.687 2.14048 14.0261 2.39052 14.2761C2.64057 14.5262 2.97971 14.6667 3.33333 14.6667ZM6.66667 13.3333V10H9.33333V13.3333H6.66667ZM3.33333 7.60666L8 2.94L12.6667 7.60666V13.3333H10.6667V10C10.6667 9.64637 10.5262 9.30724 10.2761 9.05719C10.0261 8.80714 9.68696 8.66666 9.33333 8.66666H6.66667C6.31305 8.66666 5.97391 8.80714 5.72386 9.05719C5.47381 9.30724 5.33333 9.64637 5.33333 10V13.3333H3.33333V7.60666Z" fill="black"/>
</svg>
